<svg width="95" height="37" viewBox="0 0 95 37" fill="none" xmlns="http://www.w3.org/2000/svg">
<rect y="0.026123" width="35.4219" height="35.6958" fill="white"/>
<path d="M20.8981 27.852C20.8304 27.852 20.7753 27.8435 20.733 27.8266C20.6992 27.8097 20.6653 27.7674 20.6315 27.6996C20.6061 27.6235 20.5934 27.5092 20.5934 27.3569V10.0912C20.5934 9.88812 20.6188 9.75694 20.6696 9.69769C20.7203 9.62998 20.7965 9.59613 20.8981 9.59613H26.8776C26.9453 9.59613 26.9961 9.60459 27.0299 9.62152C27.0722 9.62998 27.1061 9.6723 27.1315 9.74847C27.1653 9.81618 27.1823 9.91774 27.1823 10.0532V10.7641C27.1823 10.908 27.1653 11.0138 27.1315 11.0815C27.1061 11.1492 27.0765 11.1915 27.0426 11.2084C27.0087 11.2169 26.9537 11.2211 26.8776 11.2211H22.777C22.6839 11.2211 22.6373 11.3312 22.6373 11.5512V17.6577C22.6373 17.7931 22.6712 17.8608 22.7389 17.8608H26.1793C26.2893 17.8608 26.3655 17.8862 26.4078 17.937C26.4586 17.9877 26.484 18.1105 26.484 18.3051V19.1176C26.484 19.2615 26.4671 19.3673 26.4332 19.435C26.4078 19.5027 26.3782 19.545 26.3444 19.562C26.3105 19.5704 26.2555 19.5746 26.1793 19.5746H22.7516C22.7262 19.5746 22.7008 19.6085 22.6754 19.6762C22.65 19.7439 22.6373 19.8074 22.6373 19.8666V27.3569C22.6373 27.5685 22.6119 27.7039 22.5612 27.7631C22.5188 27.8224 22.4427 27.852 22.3326 27.852H20.8981Z" fill="black"/>
<path d="M14.7976 27.852C14.8653 27.852 14.9203 27.8435 14.9626 27.8266C14.9965 27.8097 15.0304 27.7674 15.0642 27.6996C15.0896 27.6235 15.1023 27.5092 15.1023 27.3569V10.0912C15.1023 9.88812 15.0769 9.75694 15.0261 9.69769C14.9753 9.62998 14.8992 9.59613 14.7976 9.59613H8.81812C8.75041 9.59613 8.69963 9.60459 8.66577 9.62152C8.62345 9.62998 8.5896 9.6723 8.56421 9.74847C8.53035 9.81618 8.51343 9.91774 8.51343 10.0532V10.7641C8.51343 10.908 8.53035 11.0138 8.56421 11.0815C8.5896 11.1492 8.61922 11.1915 8.65308 11.2084C8.68693 11.2169 8.74194 11.2211 8.81812 11.2211H12.9187C13.0118 11.2211 13.0583 11.3312 13.0583 11.5512V17.6577C13.0583 17.7931 13.0245 17.8608 12.9568 17.8608H9.51636C9.40633 17.8608 9.33016 17.8862 9.28784 17.937C9.23706 17.9877 9.21167 18.1105 9.21167 18.3051V19.1176C9.21167 19.2615 9.2286 19.3673 9.26245 19.435C9.28784 19.5027 9.31746 19.545 9.35132 19.562C9.38517 19.5704 9.44019 19.5746 9.51636 19.5746H12.9441C12.9695 19.5746 12.9949 19.6085 13.0203 19.6762C13.0457 19.7439 13.0583 19.8074 13.0583 19.8666V27.3569C13.0583 27.5685 13.0837 27.7039 13.1345 27.7631C13.1768 27.8224 13.253 27.852 13.363 27.852H14.7976Z" fill="black"/>
<path d="M19.026 29.4405L19.4353 29.1547C19.1207 29.1547 19.0282 29.0152 19.0261 28.828L19.026 29.4405Z" fill="black"/>
<path d="M19.026 28.8214C19.026 28.8236 19.026 28.8258 19.0261 28.828M19.0261 28.828C19.0282 29.0152 19.1207 29.1547 19.4353 29.1547L19.026 29.4405L19.0261 28.828Z" stroke="black" stroke-width="0.1"/>
<path d="M16.7065 9.24683H19.026V31.0598H17.7065C17.1543 31.0598 16.7065 30.6121 16.7065 30.0598V9.24683Z" fill="black"/>
<path d="M22.6409 29.1243L22.6433 31.0609L19.0182 31.066L19.0157 29.1294L22.6409 29.1243Z" fill="black"/>
<path d="M27.0493 6.00818L27.0516 7.80551L8.40137 7.83145L8.40036 7.03411C8.39966 6.48183 8.84681 6.03349 9.39909 6.03272L27.0493 6.00818Z" fill="black"/>
<path d="M15.0454 29.1695L15.0479 31.1061L12.9842 31.1089L12.9817 29.1724L15.0454 29.1695Z" fill="black"/>
<path d="M47.41 3H50.32V4H48.51V5.95H49.93V6.95H48.51V10H47.41V3ZM53.9752 3H55.4652L56.6052 10H55.5052L55.3052 8.61V8.63H54.0552L53.8552 10H52.8352L53.9752 3ZM55.1752 7.68L54.6852 4.22H54.6652L54.1852 7.68H55.1752ZM59.7389 3H61.3689C61.9356 3 62.3489 3.13333 62.6089 3.4C62.8689 3.66 62.9989 4.06333 62.9989 4.61V5.04C62.9989 5.76667 62.7589 6.22667 62.2789 6.42V6.44C62.5456 6.52 62.7322 6.68333 62.8389 6.93C62.9522 7.17667 63.0089 7.50667 63.0089 7.92V9.15C63.0089 9.35 63.0156 9.51333 63.0289 9.64C63.0422 9.76 63.0756 9.88 63.1289 10H62.0089C61.9689 9.88667 61.9422 9.78 61.9289 9.68C61.9156 9.58 61.9089 9.4 61.9089 9.14V7.86C61.9089 7.54 61.8556 7.31667 61.7489 7.19C61.6489 7.06333 61.4722 7 61.2189 7H60.8389V10H59.7389V3ZM61.2389 6C61.4589 6 61.6222 5.94333 61.7289 5.83C61.8422 5.71667 61.8989 5.52667 61.8989 5.26V4.72C61.8989 4.46667 61.8522 4.28333 61.7589 4.17C61.6722 4.05667 61.5322 4 61.3389 4H60.8389V6H61.2389ZM47.41 15H48.51V21H50.32V22H47.41V15ZM53.4475 15H54.5475V22H53.4475V15ZM59.5313 22.1C58.998 22.1 58.5913 21.95 58.3113 21.65C58.0313 21.3433 57.8913 20.9067 57.8913 20.34V16.66C57.8913 16.0933 58.0313 15.66 58.3113 15.36C58.5913 15.0533 58.998 14.9 59.5313 14.9C60.0647 14.9 60.4713 15.0533 60.7513 15.36C61.0313 15.66 61.1713 16.0933 61.1713 16.66V17.26H60.1313V16.59C60.1313 16.13 59.9413 15.9 59.5613 15.9C59.1813 15.9 58.9913 16.13 58.9913 16.59V20.42C58.9913 20.8733 59.1813 21.1 59.5613 21.1C59.9413 21.1 60.1313 20.8733 60.1313 20.42V19.05H59.5813V18.05H61.1713V20.34C61.1713 20.9067 61.0313 21.3433 60.7513 21.65C60.4713 21.95 60.0647 22.1 59.5313 22.1ZM64.4776 15H65.5776V17.85H66.7576V15H67.8576V22H66.7576V18.85H65.5776V22H64.4776V15ZM72.1368 16H70.9868V15H74.3868V16H73.2368V22H72.1368V16ZM47.41 27H50.32V28H48.51V29.95H49.93V30.95H48.51V34H47.41V27ZM53.4475 27H56.4475V28H54.5475V29.85H56.0575V30.85H54.5475V33H56.4475V34H53.4475V27ZM61.1298 34.1C60.5965 34.1 60.1932 33.95 59.9198 33.65C59.6465 33.3433 59.5098 32.9067 59.5098 32.34V31.94H60.5498V32.42C60.5498 32.8733 60.7398 33.1 61.1198 33.1C61.3065 33.1 61.4465 33.0467 61.5398 32.94C61.6398 32.8267 61.6898 32.6467 61.6898 32.4C61.6898 32.1067 61.6232 31.85 61.4898 31.63C61.3565 31.4033 61.1098 31.1333 60.7498 30.82C60.2965 30.42 59.9798 30.06 59.7998 29.74C59.6198 29.4133 59.5298 29.0467 59.5298 28.64C59.5298 28.0867 59.6698 27.66 59.9498 27.36C60.2298 27.0533 60.6365 26.9 61.1698 26.9C61.6965 26.9 62.0932 27.0533 62.3598 27.36C62.6332 27.66 62.7698 28.0933 62.7698 28.66V28.95H61.7298V28.59C61.7298 28.35 61.6832 28.1767 61.5898 28.07C61.4965 27.9567 61.3598 27.9 61.1798 27.9C60.8132 27.9 60.6298 28.1233 60.6298 28.57C60.6298 28.8233 60.6965 29.06 60.8298 29.28C60.9698 29.5 61.2198 29.7667 61.5798 30.08C62.0398 30.48 62.3565 30.8433 62.5298 31.17C62.7032 31.4967 62.7898 31.88 62.7898 32.32C62.7898 32.8933 62.6465 33.3333 62.3598 33.64C62.0798 33.9467 61.6698 34.1 61.1298 34.1ZM66.8805 28H65.7305V27H69.1305V28H67.9805V34H66.8805V28ZM72.2631 27H73.3631V34H72.2631V27ZM76.497 27H77.607L78.327 32.43H78.347L79.067 27H80.077L79.017 34H77.557L76.497 27ZM83.7721 27H85.2621L86.4021 34H85.3021L85.1021 32.61V32.63H83.8521L83.6521 34H82.6321L83.7721 27ZM84.9721 31.68L84.4821 28.22H84.4621L83.9821 31.68H84.9721ZM89.5358 27H90.6358V33H92.4458V34H89.5358V27Z" fill="white"/>
</svg>
