<svg width="194" height="203" viewBox="0 0 194 203" fill="none" xmlns="http://www.w3.org/2000/svg">
<rect width="194" height="195.5" fill="white"/>
<path d="M114.43 150C114.06 150 113.759 149.954 113.528 149.861C113.343 149.769 113.159 149.538 112.974 149.168C112.835 148.752 112.766 148.128 112.766 147.296V52.999C112.766 51.8896 112.904 51.1732 113.182 50.8496C113.459 50.4798 113.875 50.2949 114.43 50.2949H147.087C147.457 50.2949 147.734 50.3411 147.919 50.4336C148.15 50.4798 148.335 50.7109 148.474 51.127C148.659 51.4967 148.751 52.0514 148.751 52.791V56.6738C148.751 57.4596 148.659 58.0374 148.474 58.4072C148.335 58.777 148.173 59.0081 147.988 59.1006C147.803 59.1468 147.503 59.1699 147.087 59.1699H124.691C124.183 59.1699 123.929 59.7708 123.929 60.9727V94.3232C123.929 95.0628 124.114 95.4326 124.483 95.4326H143.273C143.874 95.4326 144.29 95.5713 144.521 95.8486C144.799 96.126 144.938 96.7962 144.938 97.8594V102.297C144.938 103.083 144.845 103.66 144.66 104.03C144.521 104.4 144.36 104.631 144.175 104.724C143.99 104.77 143.689 104.793 143.273 104.793H124.553C124.414 104.793 124.275 104.978 124.137 105.348C123.998 105.717 123.929 106.064 123.929 106.388V147.296C123.929 148.451 123.79 149.191 123.513 149.515C123.282 149.838 122.866 150 122.265 150H114.43Z" fill="#FF0000"/>
<path d="M81.0703 150C81.4401 150 81.7406 149.954 81.9717 149.861C82.1566 149.769 82.3415 149.538 82.5264 149.168C82.665 148.752 82.7344 148.128 82.7344 147.296V52.999C82.7344 51.8896 82.5957 51.1732 82.3184 50.8496C82.041 50.4798 81.625 50.2949 81.0703 50.2949H48.4131C48.0433 50.2949 47.766 50.3411 47.5811 50.4336C47.3499 50.4798 47.165 50.7109 47.0264 51.127C46.8415 51.4967 46.749 52.0514 46.749 52.791V56.6738C46.749 57.4596 46.8415 58.0374 47.0264 58.4072C47.165 58.777 47.3268 59.0081 47.5117 59.1006C47.6966 59.1468 47.9971 59.1699 48.4131 59.1699H70.8086C71.3171 59.1699 71.5713 59.7708 71.5713 60.9727V94.3232C71.5713 95.0628 71.3864 95.4326 71.0166 95.4326H52.2266C51.6257 95.4326 51.2096 95.5713 50.9785 95.8486C50.7012 96.126 50.5625 96.7962 50.5625 97.8594V102.297C50.5625 103.083 50.6549 103.66 50.8398 104.03C50.9785 104.4 51.1403 104.631 51.3252 104.724C51.5101 104.77 51.8105 104.793 52.2266 104.793H70.9473C71.0859 104.793 71.2246 104.978 71.3633 105.348C71.502 105.717 71.5713 106.064 71.5713 106.388V147.296C71.5713 148.451 71.71 149.191 71.9873 149.515C72.2184 149.838 72.6344 150 73.2354 150H81.0703Z" fill="#FF0000"/>
<path d="M104.203 161.097L106.445 159.532C104.722 159.532 104.215 158.768 104.204 157.743L104.203 161.097Z" fill="#FF0000"/>
<path d="M104.203 157.706C104.203 157.719 104.204 157.731 104.204 157.743M104.204 157.743C104.215 158.768 104.722 159.532 106.445 159.532L104.203 161.097L104.204 157.743Z" stroke="#FF0000" stroke-width="0.1"/>
<path d="M91.5 52.5C91.5 51.3954 92.3954 50.5 93.5 50.5H102.203C103.308 50.5 104.203 51.3954 104.203 52.5V169.966H95.5C93.2909 169.966 91.5 168.175 91.5 165.966V52.5Z" fill="#FF0000"/>
<path d="M122.002 159.369C123.106 159.367 124.003 160.261 124.004 161.366L124.013 167.972C124.014 169.077 123.12 169.974 122.015 169.975L104.161 170L104.147 159.394L122.002 159.369Z" fill="#FF0000"/>
<path d="M146.145 32.7655C147.25 32.7639 148.146 33.6581 148.148 34.7627L148.155 40.6064C148.157 41.711 147.262 42.6076 146.158 42.6092L46.0134 42.7484L46.0048 35.9047C46.0027 34.2479 47.3441 32.9029 49.0009 32.9006L146.145 32.7655Z" fill="black"/>
<path d="M80.4005 159.616C81.5051 159.615 82.4016 160.509 82.403 161.614L82.4114 168.22C82.4128 169.325 81.5185 170.221 80.414 170.223L71.1115 170.236L71.1019 162.629C71.0998 160.973 72.4412 159.627 74.0981 159.625L80.4005 159.616Z" fill="black"/>
</svg>
