<svg width="155" height="77" viewBox="0 0 155 77" fill="none" xmlns="http://www.w3.org/2000/svg">
<rect x="0.92627" width="76.0617" height="76.6498" fill="black"/>
<path d="M46.271 57.1762C46.1226 57.1762 46.002 57.1577 45.9092 57.1205C45.835 57.0834 45.7607 56.9907 45.6865 56.8422C45.6309 56.6752 45.603 56.4247 45.603 56.0908V18.2392C45.603 17.7939 45.6587 17.5063 45.77 17.3764C45.8813 17.228 46.0483 17.1537 46.271 17.1537H59.3799C59.5283 17.1537 59.6396 17.1723 59.7139 17.2094C59.8066 17.228 59.8809 17.3207 59.9365 17.4877C60.0107 17.6362 60.0479 17.8588 60.0479 18.1557V19.7143C60.0479 20.0297 60.0107 20.2617 59.9365 20.4101C59.8809 20.5585 59.8159 20.6513 59.7417 20.6884C59.6675 20.707 59.5469 20.7162 59.3799 20.7162H50.3901C50.186 20.7162 50.084 20.9575 50.084 21.4399V34.8271C50.084 35.124 50.1582 35.2724 50.3066 35.2724H57.8491C58.0903 35.2724 58.2573 35.3281 58.3501 35.4394C58.4614 35.5507 58.5171 35.8198 58.5171 36.2465V38.0278C58.5171 38.3432 58.48 38.5751 58.4058 38.7236C58.3501 38.872 58.2852 38.9648 58.2109 39.0019C58.1367 39.0204 58.0161 39.0297 57.8491 39.0297H50.3345C50.2788 39.0297 50.2231 39.1039 50.1675 39.2524C50.1118 39.4008 50.084 39.54 50.084 39.6699V56.0908C50.084 56.5546 50.0283 56.8515 49.917 56.9814C49.8242 57.1113 49.6572 57.1762 49.416 57.1762H46.271Z" fill="white"/>
<path d="M33.0156 57.1762C33.1641 57.1762 33.2847 57.1577 33.3774 57.1205C33.4517 57.0834 33.5259 56.9907 33.6001 56.8422C33.6558 56.6752 33.6836 56.4247 33.6836 56.0908V18.2392C33.6836 17.7939 33.6279 17.5063 33.5166 17.3764C33.4053 17.228 33.2383 17.1537 33.0156 17.1537H19.9067C19.7583 17.1537 19.647 17.1723 19.5728 17.2094C19.48 17.228 19.4058 17.3207 19.3501 17.4877C19.2759 17.6362 19.2388 17.8588 19.2388 18.1557V19.7143C19.2388 20.0297 19.2759 20.2617 19.3501 20.4101C19.4058 20.5585 19.4707 20.6513 19.5449 20.6884C19.6191 20.707 19.7397 20.7162 19.9067 20.7162H28.8965C29.1006 20.7162 29.2026 20.9575 29.2026 21.4399V34.8271C29.2026 35.124 29.1284 35.2724 28.98 35.2724H21.4375C21.1963 35.2724 21.0293 35.3281 20.9365 35.4394C20.8252 35.5507 20.7695 35.8198 20.7695 36.2465V38.0278C20.7695 38.3432 20.8066 38.5751 20.8809 38.7236C20.9365 38.872 21.0015 38.9648 21.0757 39.0019C21.1499 39.0204 21.2705 39.0297 21.4375 39.0297H28.9521C29.0078 39.0297 29.0635 39.1039 29.1191 39.2524C29.1748 39.4008 29.2026 39.54 29.2026 39.6699V56.0908C29.2026 56.5546 29.2583 56.8515 29.3696 56.9814C29.4624 57.1113 29.6294 57.1762 29.8706 57.1762H33.0156Z" fill="white"/>
<path d="M42.0034 61.255L44.1654 59.8137C42.5034 59.8137 42.0149 58.7798 42.0037 57.6905L42.0034 61.255Z" fill="white"/>
<path d="M42.0035 57.6518C42.0035 57.6647 42.0036 57.6776 42.0037 57.6905M42.0037 57.6905C42.0149 58.7798 42.5034 59.8137 44.1654 59.8137L42.0034 61.255L42.0037 57.6905Z" stroke="white" stroke-width="0.1"/>
<path d="M37.1929 18.0551C37.1929 17.5028 37.6406 17.0551 38.1929 17.0551H41.1735C41.7258 17.0551 42.1735 17.5028 42.1735 18.0551V63.8942H39.1929C38.0883 63.8942 37.1929 62.9988 37.1929 61.8942V18.0551Z" fill="white"/>
<path d="M48.9355 59.7396C49.4878 59.7388 49.9361 60.1859 49.9368 60.7382L49.9396 62.8967C49.9403 63.4489 49.4931 63.8973 48.9408 63.898L42.1565 63.9075L42.1512 59.749L48.9355 59.7396Z" fill="white"/>
<path d="M58.9741 10.0014C59.5264 10.0006 59.9747 10.4477 59.9754 11L59.9777 12.8666C59.9784 13.4189 59.5312 13.8673 58.9789 13.8681L19.9311 13.9237L19.9276 11.057C19.9269 10.5048 20.3741 10.0564 20.9263 10.0556L58.9741 10.0014Z" fill="white"/>
<path d="M33.1973 59.829C33.7496 59.8282 34.1978 60.2753 34.1985 60.8276L34.2013 62.9938C34.202 63.5461 33.7548 63.9944 33.2025 63.9952L29.7712 64L29.7672 60.8338C29.7665 60.2815 30.2136 59.8332 30.7659 59.8324L33.1973 59.829Z" fill="white"/>
<path d="M82.6443 12.6249H87.3003V14.2249H84.4043V17.3449H86.6763V18.9449H84.4043V23.8249H82.6443V12.6249ZM93.1487 12.6249H95.5327L97.3567 23.8249H95.5967L95.2767 21.6009V21.6329H93.2767L92.9567 23.8249H91.3247L93.1487 12.6249ZM95.0687 20.1129L94.2847 14.5769H94.2527L93.4847 20.1129H95.0687ZM102.371 12.6249H104.979C105.885 12.6249 106.547 12.8382 106.963 13.2649C107.379 13.6809 107.587 14.3262 107.587 15.2009V15.8889C107.587 17.0516 107.203 17.7876 106.435 18.0969V18.1289C106.861 18.2569 107.16 18.5182 107.331 18.9129C107.512 19.3076 107.603 19.8356 107.603 20.4969V22.4649C107.603 22.7849 107.613 23.0462 107.635 23.2489C107.656 23.4409 107.709 23.6329 107.795 23.8249H106.003C105.939 23.6436 105.896 23.4729 105.875 23.3129C105.853 23.1529 105.843 22.8649 105.843 22.4489V20.4009C105.843 19.8889 105.757 19.5316 105.587 19.3289C105.427 19.1262 105.144 19.0249 104.739 19.0249H104.131V23.8249H102.371V12.6249ZM104.771 17.4249C105.123 17.4249 105.384 17.3342 105.555 17.1529C105.736 16.9716 105.827 16.6676 105.827 16.2409V15.3769C105.827 14.9716 105.752 14.6782 105.603 14.4969C105.464 14.3156 105.24 14.2249 104.931 14.2249H104.131V17.4249H104.771ZM82.6443 31.6249H84.4043V41.2249H87.3003V42.8249H82.6443V31.6249ZM92.3043 31.6249H94.0643V42.8249H92.3043V31.6249ZM102.038 42.9849C101.185 42.9849 100.534 42.7449 100.086 42.2649C99.6384 41.7742 99.4144 41.0756 99.4144 40.1689V34.2809C99.4144 33.3742 99.6384 32.6809 100.086 32.2009C100.534 31.7102 101.185 31.4649 102.038 31.4649C102.892 31.4649 103.542 31.7102 103.99 32.2009C104.438 32.6809 104.662 33.3742 104.662 34.2809V35.2409H102.998V34.1689C102.998 33.4329 102.694 33.0649 102.086 33.0649C101.478 33.0649 101.174 33.4329 101.174 34.1689V40.2969C101.174 41.0222 101.478 41.3849 102.086 41.3849C102.694 41.3849 102.998 41.0222 102.998 40.2969V38.1049H102.118V36.5049H104.662V40.1689C104.662 41.0756 104.438 41.7742 103.99 42.2649C103.542 42.7449 102.892 42.9849 102.038 42.9849ZM109.952 31.6249H111.712V36.1849H113.6V31.6249H115.36V42.8249H113.6V37.7849H111.712V42.8249H109.952V31.6249ZM122.207 33.2249H120.367V31.6249H125.807V33.2249H123.967V42.8249H122.207V33.2249Z" fill="white"/>
<path d="M82.6443 50.6249H87.3003V52.2249H84.4043V55.3449H86.6763V56.9449H84.4043V61.8249H82.6443V50.6249ZM92.3043 50.6249H97.1043V52.2249H94.0643V55.1849H96.4803V56.7849H94.0643V60.2249H97.1043V61.8249H92.3043V50.6249ZM104.596 61.9849C103.743 61.9849 103.097 61.7449 102.66 61.2649C102.223 60.7742 102.004 60.0756 102.004 59.1689V58.5289H103.668V59.2969C103.668 60.0222 103.972 60.3849 104.58 60.3849C104.879 60.3849 105.103 60.2996 105.252 60.1289C105.412 59.9476 105.492 59.6596 105.492 59.2649C105.492 58.7956 105.385 58.3849 105.172 58.0329C104.959 57.6702 104.564 57.2382 103.988 56.7369C103.263 56.0969 102.756 55.5209 102.468 55.0089C102.18 54.4862 102.036 53.8996 102.036 53.2489C102.036 52.3636 102.26 51.6809 102.708 51.2009C103.156 50.7102 103.807 50.4649 104.66 50.4649C105.503 50.4649 106.137 50.7102 106.564 51.2009C107.001 51.6809 107.22 52.3742 107.22 53.2809V53.7449H105.556V53.1689C105.556 52.7849 105.481 52.5076 105.332 52.3369C105.183 52.1556 104.964 52.0649 104.676 52.0649C104.089 52.0649 103.796 52.4222 103.796 53.1369C103.796 53.5422 103.903 53.9209 104.116 54.2729C104.34 54.6249 104.74 55.0516 105.316 55.5529C106.052 56.1929 106.559 56.7742 106.836 57.2969C107.113 57.8196 107.252 58.4329 107.252 59.1369C107.252 60.0542 107.023 60.7582 106.564 61.2489C106.116 61.7396 105.46 61.9849 104.596 61.9849ZM113.797 52.2249H111.957V50.6249H117.397V52.2249H115.557V61.8249H113.797V52.2249ZM122.409 50.6249H124.169V61.8249H122.409V50.6249ZM129.183 50.6249H130.959L132.111 59.3129H132.143L133.295 50.6249H134.911L133.215 61.8249H130.879L129.183 50.6249ZM140.824 50.6249H143.208L145.032 61.8249H143.272L142.952 59.6009V59.6329H140.952L140.632 61.8249H139L140.824 50.6249ZM142.744 58.1129L141.96 52.5769H141.928L141.16 58.1129H142.744ZM150.046 50.6249H151.806V60.2249H154.702V61.8249H150.046V50.6249Z" fill="#FF0000"/>
</svg>
