<svg width="461" height="405" viewBox="0 0 461 405" fill="none" xmlns="http://www.w3.org/2000/svg">
<path d="M203.875 390.283C201.955 390.276 200.45 389.73 199.361 388.647C198.286 387.563 197.752 386.001 197.76 383.961L197.792 376.061L200.392 376.07L200.361 383.87C200.355 385.31 200.657 386.358 201.268 387.013C201.892 387.669 202.771 387.999 203.904 388.003C205.037 388.007 205.912 387.683 206.528 387.032C207.144 386.381 207.455 385.335 207.46 383.895L207.492 376.095L210.052 376.105L210.02 384.004C210.012 386.044 209.459 387.603 208.361 388.679C207.277 389.755 205.781 390.289 203.875 390.283ZM214.437 390.12L214.493 376.12L216.633 376.128L225.37 386.939L224.31 386.935L224.353 376.155L226.933 376.165L226.877 390.164L224.737 390.157L216 379.346L217.06 379.349L217.017 390.129L214.437 390.12ZM231.428 390.181L231.484 376.181L234.084 376.19L234.028 390.19L231.428 390.181ZM245.174 390.43C244.081 390.426 243.075 390.242 242.156 389.879C241.238 389.516 240.44 389.013 239.762 388.37C239.085 387.715 238.561 386.953 238.191 386.085C237.822 385.203 237.639 384.243 237.643 383.203C237.647 382.163 237.838 381.21 238.214 380.345C238.591 379.466 239.121 378.708 239.804 378.07C240.486 377.42 241.288 376.916 242.21 376.559C243.131 376.202 244.132 376.026 245.212 376.03C246.305 376.034 247.304 376.217 248.21 376.58C249.128 376.944 249.926 377.446 250.604 378.089C251.281 378.731 251.805 379.493 252.174 380.374C252.544 381.256 252.727 382.216 252.723 383.256C252.719 384.296 252.528 385.256 252.151 386.134C251.774 387.013 251.245 387.771 250.562 388.409C249.879 389.046 249.077 389.543 248.156 389.9C247.248 390.257 246.254 390.433 245.174 390.43ZM249.722 393.306C249.229 393.304 248.749 393.242 248.283 393.121C247.83 393.012 247.378 392.824 246.925 392.556C246.486 392.301 246.028 391.959 245.549 391.531C245.071 391.116 244.547 390.601 243.976 389.985L246.739 389.275C247.11 389.77 247.462 390.164 247.794 390.459C248.139 390.767 248.472 390.988 248.791 391.122C249.111 391.257 249.444 391.325 249.79 391.326C250.71 391.329 251.512 390.959 252.195 390.215L253.389 391.659C252.451 392.762 251.229 393.311 249.722 393.306ZM245.163 388.15C245.87 388.152 246.524 388.034 247.124 387.797C247.725 387.559 248.247 387.221 248.689 386.782C249.13 386.33 249.473 385.805 249.715 385.206C249.971 384.607 250.1 383.954 250.103 383.247C250.106 382.527 249.982 381.873 249.731 381.286C249.493 380.685 249.155 380.164 248.717 379.722C248.279 379.267 247.76 378.919 247.161 378.677C246.562 378.434 245.909 378.312 245.203 378.31C244.496 378.307 243.842 378.425 243.241 378.663C242.64 378.901 242.119 379.245 241.677 379.697C241.235 380.136 240.886 380.654 240.631 381.253C240.388 381.839 240.266 382.492 240.263 383.212C240.26 383.919 240.377 384.573 240.615 385.173C240.866 385.774 241.21 386.302 241.649 386.757C242.087 387.199 242.605 387.54 243.205 387.783C243.804 388.025 244.456 388.147 245.163 388.15ZM262.27 390.49C260.35 390.484 258.845 389.938 257.756 388.854C256.681 387.771 256.147 386.209 256.155 384.169L256.187 376.269L258.787 376.278L258.755 384.078C258.75 385.518 259.052 386.566 259.663 387.221C260.287 387.877 261.166 388.206 262.299 388.211C263.432 388.215 264.307 387.891 264.923 387.24C265.539 386.589 265.85 385.543 265.855 384.103L265.887 376.303L268.447 376.312L268.415 384.212C268.407 386.252 267.854 387.81 266.756 388.886C265.672 389.963 264.176 390.497 262.27 390.49ZM275.265 382.157L282.225 382.181L282.216 384.321L275.256 384.297L275.265 382.157ZM275.44 388.157L283.34 388.185L283.332 390.365L272.832 390.328L272.888 376.328L283.108 376.365L283.099 378.544L275.479 378.517L275.44 388.157Z" fill="#AE0000"/>
<path d="M446.824 381.515C446.824 382.608 446.644 383.615 446.284 384.535C445.924 385.455 445.424 386.255 444.784 386.935C444.131 387.615 443.371 388.141 442.504 388.515C441.624 388.888 440.664 389.075 439.624 389.075C438.584 389.075 437.631 388.888 436.764 388.515C435.884 388.141 435.124 387.615 434.484 386.935C433.831 386.255 433.324 385.455 432.964 384.535C432.604 383.615 432.424 382.615 432.424 381.535C432.424 380.441 432.604 379.441 432.964 378.535C433.324 377.615 433.831 376.815 434.484 376.135C435.124 375.455 435.884 374.928 436.764 374.555C437.631 374.181 438.584 373.995 439.624 373.995C440.664 373.995 441.624 374.181 442.504 374.555C443.384 374.928 444.144 375.455 444.784 376.135C445.424 376.815 445.924 377.615 446.284 378.535C446.644 379.441 446.824 380.435 446.824 381.515ZM444.544 381.535C444.544 380.828 444.424 380.175 444.184 379.575C443.944 378.975 443.604 378.455 443.164 378.015C442.711 377.575 442.191 377.235 441.604 376.995C441.004 376.741 440.344 376.615 439.624 376.615C438.904 376.615 438.251 376.741 437.664 376.995C437.064 377.235 436.544 377.575 436.104 378.015C435.651 378.455 435.304 378.975 435.064 379.575C434.824 380.175 434.704 380.828 434.704 381.535C434.704 382.241 434.824 382.895 435.064 383.495C435.304 384.081 435.651 384.601 436.104 385.055C436.544 385.495 437.064 385.841 437.664 386.095C438.251 386.335 438.904 386.455 439.624 386.455C440.331 386.455 440.984 386.335 441.584 386.095C442.184 385.841 442.711 385.495 443.164 385.055C443.604 384.615 443.944 384.095 444.184 383.495C444.424 382.895 444.544 382.241 444.544 381.535ZM446.624 370.439H432.624V364.679C432.624 363.439 432.824 362.379 433.224 361.499C433.624 360.605 434.198 359.919 434.944 359.439C435.691 358.959 436.578 358.719 437.604 358.719C438.631 358.719 439.518 358.959 440.264 359.439C440.998 359.919 441.564 360.605 441.964 361.499C442.351 362.379 442.544 363.439 442.544 364.679V368.999L441.364 367.839H446.624V370.439ZM446.624 361.279L441.544 364.819V362.039L446.624 358.479V361.279ZM441.644 367.839L440.404 368.999V364.799C440.404 363.652 440.158 362.792 439.664 362.219C439.171 361.632 438.484 361.339 437.604 361.339C436.711 361.339 436.024 361.632 435.544 362.219C435.064 362.792 434.824 363.652 434.824 364.799V368.999L433.544 367.839H441.644ZM446.624 355.01H432.624V352.41H446.624V355.01ZM446.824 341.283C446.824 342.376 446.651 343.383 446.304 344.303C445.944 345.21 445.444 346.003 444.804 346.683C444.151 347.363 443.384 347.89 442.504 348.263C441.624 348.636 440.664 348.823 439.624 348.823C438.584 348.823 437.624 348.636 436.744 348.263C435.864 347.89 435.104 347.363 434.464 346.683C433.811 345.99 433.311 345.183 432.964 344.263C432.604 343.343 432.424 342.336 432.424 341.243C432.424 340.056 432.618 338.99 433.004 338.043C433.391 337.083 433.958 336.276 434.704 335.623L436.304 337.263C435.758 337.81 435.358 338.403 435.104 339.043C434.838 339.67 434.704 340.363 434.704 341.123C434.704 341.856 434.824 342.536 435.064 343.163C435.304 343.79 435.644 344.33 436.084 344.783C436.524 345.236 437.044 345.59 437.644 345.843C438.244 346.083 438.904 346.203 439.624 346.203C440.331 346.203 440.984 346.083 441.584 345.843C442.184 345.59 442.711 345.236 443.164 344.783C443.604 344.33 443.944 343.796 444.184 343.183C444.424 342.57 444.544 341.89 444.544 341.143C444.544 340.45 444.438 339.783 444.224 339.143C443.998 338.49 443.624 337.87 443.104 337.283L445.044 335.803C445.631 336.536 446.078 337.39 446.384 338.363C446.678 339.323 446.824 340.296 446.824 341.283ZM444.704 338.263H439.464V335.803H445.044L444.704 338.263ZM446.624 331.574H432.624V328.974H446.624V331.574ZM446.624 324.387H432.624V322.247L443.404 313.467V314.527H432.624V311.947H446.624V314.087L435.844 322.867V321.807H446.624V324.387ZM446.624 309.376L432.624 303.076V300.516L446.624 294.196V296.916L434.004 302.336V301.296L446.624 306.696V309.376ZM443.384 306.476L441.344 305.776V298.216L443.384 297.516V306.476ZM446.624 291.615H432.624V289.015H444.424V281.695H446.624V291.615Z" fill="#D10000"/>
<path d="M21.4471 389.999V375.999H23.5871L32.3671 386.779H31.3071V375.999H33.8871V389.999H31.7471L22.9671 379.219H24.0271V389.999H21.4471ZM44.9985 390.199C43.9052 390.199 42.8985 390.019 41.9785 389.659C41.0585 389.299 40.2585 388.799 39.5785 388.159C38.8985 387.506 38.3719 386.746 37.9985 385.879C37.6252 384.999 37.4385 384.039 37.4385 382.999C37.4385 381.959 37.6252 381.006 37.9985 380.139C38.3719 379.259 38.8985 378.499 39.5785 377.859C40.2585 377.206 41.0585 376.699 41.9785 376.339C42.8985 375.979 43.8985 375.799 44.9785 375.799C46.0719 375.799 47.0719 375.979 47.9785 376.339C48.8985 376.699 49.6985 377.206 50.3785 377.859C51.0585 378.499 51.5852 379.259 51.9585 380.139C52.3319 381.006 52.5185 381.959 52.5185 382.999C52.5185 384.039 52.3319 384.999 51.9585 385.879C51.5852 386.759 51.0585 387.519 50.3785 388.159C49.6985 388.799 48.8985 389.299 47.9785 389.659C47.0719 390.019 46.0785 390.199 44.9985 390.199ZM44.9785 387.919C45.6852 387.919 46.3385 387.799 46.9385 387.559C47.5385 387.319 48.0585 386.979 48.4985 386.539C48.9385 386.086 49.2785 385.566 49.5185 384.979C49.7719 384.379 49.8985 383.719 49.8985 382.999C49.8985 382.279 49.7719 381.626 49.5185 381.039C49.2785 380.439 48.9385 379.919 48.4985 379.479C48.0585 379.026 47.5385 378.679 46.9385 378.439C46.3385 378.199 45.6852 378.079 44.9785 378.079C44.2719 378.079 43.6185 378.199 43.0185 378.439C42.4319 378.679 41.9119 379.026 41.4585 379.479C41.0185 379.919 40.6719 380.439 40.4185 381.039C40.1785 381.626 40.0585 382.279 40.0585 382.999C40.0585 383.706 40.1785 384.359 40.4185 384.959C40.6719 385.559 41.0185 386.086 41.4585 386.539C41.8985 386.979 42.4185 387.319 43.0185 387.559C43.6185 387.799 44.2719 387.919 44.9785 387.919ZM62.0945 390.199C60.1745 390.199 58.6678 389.659 57.5745 388.579C56.4945 387.499 55.9545 385.939 55.9545 383.899V375.999H58.5545V383.799C58.5545 385.239 58.8611 386.286 59.4745 386.939C60.1011 387.592 60.9811 387.919 62.1145 387.919C63.2478 387.919 64.1211 387.592 64.7345 386.939C65.3478 386.286 65.6545 385.239 65.6545 383.799V375.999H68.2145V383.899C68.2145 385.939 67.6678 387.499 66.5745 388.579C65.4945 389.659 64.0011 390.199 62.0945 390.199ZM76.7957 389.999L70.6757 375.999H73.4957L78.9557 388.659H77.3357L82.8557 375.999H85.4557L79.3557 389.999H76.7957ZM90.1331 381.819H97.0931V383.959H90.1331V381.819ZM90.3331 387.819H98.2331V389.999H87.7331V375.999H97.9531V378.179H90.3331V387.819ZM99.9515 389.999L106.251 375.999H108.811L115.131 389.999H112.411L106.991 377.379H108.031L102.631 389.999H99.9515ZM102.851 386.759L103.551 384.719H111.111L111.811 386.759H102.851ZM123.439 390.199C121.519 390.199 120.012 389.659 118.919 388.579C117.839 387.499 117.299 385.939 117.299 383.899V375.999H119.899V383.799C119.899 385.239 120.206 386.286 120.819 386.939C121.446 387.592 122.326 387.919 123.459 387.919C124.592 387.919 125.466 387.592 126.079 386.939C126.692 386.286 126.999 385.239 126.999 383.799V375.999H129.559V383.899C129.559 385.939 129.012 387.499 127.919 388.579C126.839 389.659 125.346 390.199 123.439 390.199Z" fill="#FF1C1C"/>
<path d="M339.801 389.999V375.999H345.561C346.801 375.999 347.861 376.199 348.741 376.599C349.634 376.999 350.321 377.572 350.801 378.319C351.281 379.066 351.521 379.952 351.521 380.979C351.521 382.006 351.281 382.892 350.801 383.639C350.321 384.372 349.634 384.939 348.741 385.339C347.861 385.726 346.801 385.919 345.561 385.919H341.241L342.401 384.739V389.999H339.801ZM348.961 389.999L345.421 384.919H348.201L351.761 389.999H348.961ZM342.401 385.019L341.241 383.779H345.441C346.587 383.779 347.447 383.532 348.021 383.039C348.607 382.546 348.901 381.859 348.901 380.979C348.901 380.086 348.607 379.399 348.021 378.919C347.447 378.439 346.587 378.199 345.441 378.199H341.241L342.401 376.919V385.019ZM353.249 389.999L359.549 375.999H362.109L368.429 389.999H365.709L360.289 377.379H361.329L355.929 389.999H353.249ZM356.149 386.759L356.849 384.719H364.409L365.109 386.759H356.149ZM371.01 389.999V375.999H376.77C378.01 375.999 379.07 376.199 379.95 376.599C380.843 376.999 381.53 377.572 382.01 378.319C382.49 379.066 382.73 379.952 382.73 380.979C382.73 382.006 382.49 382.892 382.01 383.639C381.53 384.386 380.843 384.959 379.95 385.359C379.07 385.759 378.01 385.959 376.77 385.959H372.45L373.61 384.739V389.999H371.01ZM373.61 385.019L372.45 383.759H376.65C377.797 383.759 378.657 383.519 379.23 383.039C379.817 382.546 380.11 381.859 380.11 380.979C380.11 380.086 379.817 379.399 379.23 378.919C378.657 378.439 377.797 378.199 376.65 378.199H372.45L373.61 376.919V385.019Z" fill="#FF0000"/>
<path d="M445 50.3157H431V44.5557C431 43.3157 431.2 42.2557 431.6 41.3757C432 40.4824 432.573 39.7957 433.32 39.3157C434.067 38.8357 434.953 38.5957 435.98 38.5957C437.007 38.5957 437.893 38.8357 438.64 39.3157C439.373 39.7957 439.94 40.4824 440.34 41.3757C440.727 42.2557 440.92 43.3157 440.92 44.5557V48.8757L439.74 47.7157H445V50.3157ZM445 41.1557L439.92 44.6957V41.9157L445 38.3557V41.1557ZM440.02 47.7157L438.78 48.8757V44.6757C438.78 43.5291 438.533 42.6691 438.04 42.0957C437.547 41.5091 436.86 41.2157 435.98 41.2157C435.087 41.2157 434.4 41.5091 433.92 42.0957C433.44 42.6691 433.2 43.5291 433.2 44.6757V48.8757L431.92 47.7157H440.02ZM445 36.8668L431 30.5668V28.0068L445 21.6868V24.4068L432.38 29.8268V28.7868L445 34.1868V36.8668ZM441.76 33.9668L439.72 33.2668V25.7068L441.76 25.0068V33.9668ZM445 19.1064L431 19.1064V13.3464C431 12.1064 431.2 11.0464 431.6 10.1664C432 9.27303 432.573 8.58637 433.32 8.10637C434.067 7.62637 434.953 7.38637 435.98 7.38637C437.007 7.38637 437.893 7.62637 438.64 8.10637C439.387 8.58637 439.96 9.27303 440.36 10.1664C440.76 11.0464 440.96 12.1064 440.96 13.3464V17.6664L439.74 16.5064L445 16.5064V19.1064ZM440.02 16.5064L438.76 17.6664V13.4664C438.76 12.3197 438.52 11.4597 438.04 10.8864C437.547 10.2997 436.86 10.0064 435.98 10.0064C435.087 10.0064 434.4 10.2997 433.92 10.8864C433.44 11.4597 433.2 12.3197 433.2 13.4664V17.6664L431.92 16.5064H440.02Z" fill="#FF0000"/>
<path d="M446.824 216.477C446.824 217.544 446.651 218.537 446.304 219.457C445.944 220.364 445.444 221.157 444.804 221.837C444.151 222.504 443.384 223.024 442.504 223.397C441.624 223.771 440.664 223.957 439.624 223.957C438.584 223.957 437.624 223.771 436.744 223.397C435.864 223.024 435.104 222.497 434.464 221.817C433.811 221.137 433.311 220.344 432.964 219.437C432.604 218.531 432.424 217.537 432.424 216.457C432.424 215.311 432.624 214.264 433.024 213.317C433.411 212.371 433.991 211.571 434.764 210.917L436.344 212.597C435.798 213.104 435.391 213.671 435.124 214.297C434.844 214.924 434.704 215.604 434.704 216.337C434.704 217.071 434.824 217.744 435.064 218.357C435.304 218.957 435.644 219.484 436.084 219.937C436.524 220.377 437.044 220.724 437.644 220.977C438.244 221.217 438.904 221.337 439.624 221.337C440.344 221.337 441.004 221.217 441.604 220.977C442.204 220.724 442.724 220.377 443.164 219.937C443.604 219.484 443.944 218.957 444.184 218.357C444.424 217.744 444.544 217.071 444.544 216.337C444.544 215.604 444.411 214.924 444.144 214.297C443.864 213.671 443.444 213.104 442.884 212.597L444.484 210.917C445.244 211.571 445.824 212.371 446.224 213.317C446.624 214.264 446.824 215.317 446.824 216.477ZM446.624 207.626H432.624V205.026H444.424V197.706H446.624V207.626ZM446.624 196.814L432.624 190.514V187.954L446.624 181.634V184.354L434.004 189.774V188.734L446.624 194.134V196.814ZM443.384 193.914L441.344 193.214V185.654L443.384 184.954V193.914ZM446.824 174.713C446.824 175.807 446.671 176.853 446.364 177.853C446.044 178.853 445.638 179.647 445.144 180.233L443.124 179.333C443.564 178.773 443.931 178.08 444.224 177.253C444.518 176.427 444.664 175.58 444.664 174.713C444.664 173.98 444.584 173.387 444.424 172.933C444.264 172.48 444.051 172.147 443.784 171.933C443.504 171.72 443.191 171.613 442.844 171.613C442.418 171.613 442.078 171.767 441.824 172.073C441.558 172.38 441.351 172.78 441.204 173.273C441.044 173.753 440.898 174.293 440.764 174.893C440.631 175.48 440.478 176.073 440.304 176.673C440.118 177.26 439.884 177.8 439.604 178.293C439.311 178.773 438.924 179.167 438.444 179.473C437.964 179.78 437.351 179.933 436.604 179.933C435.844 179.933 435.151 179.733 434.524 179.333C433.884 178.92 433.378 178.3 433.004 177.473C432.618 176.633 432.424 175.573 432.424 174.293C432.424 173.453 432.531 172.62 432.744 171.793C432.958 170.967 433.264 170.247 433.664 169.633L435.684 170.453C435.311 171.08 435.038 171.727 434.864 172.393C434.678 173.06 434.584 173.7 434.584 174.313C434.584 175.033 434.671 175.62 434.844 176.073C435.018 176.513 435.244 176.84 435.524 177.053C435.804 177.253 436.124 177.353 436.484 177.353C436.911 177.353 437.258 177.207 437.524 176.913C437.778 176.607 437.978 176.213 438.124 175.733C438.271 175.24 438.418 174.693 438.564 174.093C438.698 173.493 438.851 172.9 439.024 172.313C439.198 171.713 439.424 171.173 439.704 170.693C439.984 170.2 440.364 169.807 440.844 169.513C441.324 169.207 441.931 169.053 442.664 169.053C443.411 169.053 444.104 169.26 444.744 169.673C445.371 170.073 445.878 170.693 446.264 171.533C446.638 172.373 446.824 173.433 446.824 174.713ZM446.824 161.335C446.824 162.429 446.671 163.475 446.364 164.475C446.044 165.475 445.638 166.269 445.144 166.855L443.124 165.955C443.564 165.395 443.931 164.702 444.224 163.875C444.518 163.049 444.664 162.202 444.664 161.335C444.664 160.602 444.584 160.009 444.424 159.555C444.264 159.102 444.051 158.769 443.784 158.555C443.504 158.342 443.191 158.235 442.844 158.235C442.418 158.235 442.078 158.389 441.824 158.695C441.558 159.002 441.351 159.402 441.204 159.895C441.044 160.375 440.898 160.915 440.764 161.515C440.631 162.102 440.478 162.695 440.304 163.295C440.118 163.882 439.884 164.422 439.604 164.915C439.311 165.395 438.924 165.789 438.444 166.095C437.964 166.402 437.351 166.555 436.604 166.555C435.844 166.555 435.151 166.355 434.524 165.955C433.884 165.542 433.378 164.922 433.004 164.095C432.618 163.255 432.424 162.195 432.424 160.915C432.424 160.075 432.531 159.242 432.744 158.415C432.958 157.589 433.264 156.869 433.664 156.255L435.684 157.075C435.311 157.702 435.038 158.349 434.864 159.015C434.678 159.682 434.584 160.322 434.584 160.935C434.584 161.655 434.671 162.242 434.844 162.695C435.018 163.135 435.244 163.462 435.524 163.675C435.804 163.875 436.124 163.975 436.484 163.975C436.911 163.975 437.258 163.829 437.524 163.535C437.778 163.229 437.978 162.835 438.124 162.355C438.271 161.862 438.418 161.315 438.564 160.715C438.698 160.115 438.851 159.522 439.024 158.935C439.198 158.335 439.424 157.795 439.704 157.315C439.984 156.822 440.364 156.429 440.844 156.135C441.324 155.829 441.931 155.675 442.664 155.675C443.411 155.675 444.104 155.882 444.744 156.295C445.371 156.695 445.878 157.315 446.264 158.155C446.638 158.995 446.824 160.055 446.824 161.335ZM446.624 152.297H432.624V149.697H446.624V152.297ZM446.824 138.55C446.824 139.644 446.644 140.65 446.284 141.57C445.924 142.49 445.424 143.29 444.784 143.97C444.131 144.65 443.371 145.177 442.504 145.55C441.624 145.924 440.664 146.11 439.624 146.11C438.584 146.11 437.631 145.924 436.764 145.55C435.884 145.177 435.124 144.65 434.484 143.97C433.831 143.29 433.324 142.49 432.964 141.57C432.604 140.65 432.424 139.65 432.424 138.57C432.424 137.477 432.604 136.477 432.964 135.57C433.324 134.65 433.824 133.85 434.464 133.17C435.104 132.49 435.864 131.964 436.744 131.59C437.624 131.217 438.584 131.03 439.624 131.03C440.664 131.03 441.624 131.217 442.504 131.59C443.384 131.964 444.144 132.49 444.784 133.17C445.424 133.85 445.924 134.65 446.284 135.57C446.644 136.477 446.824 137.47 446.824 138.55ZM449.684 133.99C449.684 134.484 449.624 134.964 449.504 135.43C449.398 135.884 449.211 136.337 448.944 136.79C448.691 137.23 448.351 137.69 447.924 138.17C447.511 138.65 446.998 139.177 446.384 139.75L445.664 136.99C446.158 136.617 446.551 136.264 446.844 135.93C447.151 135.584 447.371 135.25 447.504 134.93C447.638 134.61 447.704 134.277 447.704 133.93C447.704 133.01 447.331 132.21 446.584 131.53L448.024 130.33C449.131 131.264 449.684 132.484 449.684 133.99ZM444.544 138.57C444.544 137.864 444.424 137.21 444.184 136.61C443.944 136.01 443.604 135.49 443.164 135.05C442.711 134.61 442.184 134.27 441.584 134.03C440.984 133.777 440.331 133.65 439.624 133.65C438.904 133.65 438.251 133.777 437.664 134.03C437.064 134.27 436.544 134.61 436.104 135.05C435.651 135.49 435.304 136.01 435.064 136.61C434.824 137.21 434.704 137.864 434.704 138.57C434.704 139.277 434.824 139.93 435.064 140.53C435.304 141.13 435.651 141.65 436.104 142.09C436.544 142.53 437.064 142.877 437.664 143.13C438.251 143.37 438.904 143.49 439.624 143.49C440.331 143.49 440.984 143.37 441.584 143.13C442.184 142.877 442.711 142.53 443.164 142.09C443.604 141.65 443.944 141.13 444.184 140.53C444.424 139.93 444.544 139.277 444.544 138.57ZM446.824 121.454C446.824 123.374 446.284 124.881 445.204 125.974C444.124 127.054 442.564 127.594 440.524 127.594H432.624V124.994H440.424C441.864 124.994 442.911 124.688 443.564 124.074C444.218 123.448 444.544 122.568 444.544 121.434C444.544 120.301 444.218 119.428 443.564 118.814C442.911 118.201 441.864 117.894 440.424 117.894H432.624V115.334H440.524C442.564 115.334 444.124 115.881 445.204 116.974C446.284 118.054 446.824 119.548 446.824 121.454ZM438.444 108.493V101.533H440.584V108.493H438.444ZM444.444 108.293V100.393H446.624V110.893H432.624V100.673H434.804V108.293H444.444Z" fill="#FF0000"/>
</svg>
